[Header]
FileType HTR
DataType HTRS
FileVersion 1
NumSegments 64
NumFrames 3
DataFrameRate 24
EulerRotationOrder ZYX
CalibrationUnits mm
RotationUnits Degrees
GlobalAxisofGravity Y
BoneLengthAxis Y
ScaleFactor 1.0
[SegmentNames&Hierarchy]
Hips	GLOBAL
Spine	Hips
Spine1	Spine
Spine2	Spine1
Neck	Spine2
Head	Neck
LeftEye	Head
RightEye	Head
LeftShoulder	Spine2
LeftArm	LeftShoulder
LeftForeArm	LeftArm
LeftHand	LeftForeArm
LeftHandThumb1	LeftHand
LeftHandThumb2	LeftHandThumb1
LeftHandThumb3	LeftHandThumb2
LeftHandThumb4	LeftHandThumb3
LeftHandIndex1	LeftHand
LeftHandIndex2	LeftHandIndex1
LeftHandIndex3	LeftHandIndex2
LeftHandIndex4	LeftHandIndex3
LeftHandMiddle1	LeftHand
LeftHandMiddle2	LeftHandMiddle1
LeftHandMiddle3	LeftHandMiddle2
LeftHandMiddle4	LeftHandMiddle3
LeftHandRing1	LeftHand
LeftHandRing2	LeftHandRing1
LeftHandRing3	LeftHandRing2
LeftHandRing4	LeftHandRing3
LeftHandPinky1	LeftHand
LeftHandPinky2	LeftHandPinky1
LeftHandPinky3	LeftHandPinky2
LeftHandPinky4	LeftHandPinky3
RightShoulder	Spine2
RightArm	RightShoulder
RightForeArm	RightArm
RightHand	RightForeArm
RightHandPinky1	RightHand
RightHandPinky2	RightHandPinky1
RightHandPinky3	RightHandPinky2
RightHandPinky4	RightHandPinky3
RightHandRing1	RightHand
RightHandRing2	RightHandRing1
RightHandRing3	RightHandRing2
RightHandRing4	RightHandRing3
RightHandMiddle1	RightHand
RightHandMiddle2	RightHandMiddle1
RightHandMiddle3	RightHandMiddle2
RightHandMiddle4	RightHandMiddle3
RightHandIndex1	RightHand
RightHandIndex2	RightHandIndex1
RightHandIndex3	RightHandIndex2
RightHandIndex4	RightHandIndex3
RightHandThumb1	RightHand
RightHandThumb2	RightHandThumb1
RightHandThumb3	RightHandThumb2
RightHandThumb4	RightHandThumb3
LeftUpLeg	Hips
LeftLeg	LeftUpLeg
LeftFoot	LeftLeg
LeftToeBase	LeftFoot
RightUpLeg	Hips
RightLeg	RightUpLeg
RightFoot	RightLeg
RightToeBase	RightFoot
[BasePosition]
Hips	0	0	0	0	0	0	1
Spine	0	0	0	0	0	0	1
Spine1	0	0	0	0	0	0	1
Spine2	0	0	0	0	0	0	1
Neck	0	0	0	0	0	0	1
Head	0	0	0	0	0	0	1
LeftEye	0	0	0	0	0	0	1
RightEye	0	0	0	0	0	0	1
LeftShoulder	0	0	0	0	0	0	1
LeftArm	0	0	0	0	0	0	1
LeftForeArm	0	0	0	0	0	0	1
LeftHand	0	0	0	0	0	0	1
LeftHandThumb1	0	0	0	0	0	0	1
LeftHandThumb2	0	0	0	0	0	0	1
LeftHandThumb3	0	0	0	0	0	0	1
LeftHandThumb4	0	0	0	0	0	0	1
LeftHandIndex1	0	0	0	0	0	0	1
LeftHandIndex2	0	0	0	0	0	0	1
LeftHandIndex3	0	0	0	0	0	0	1
LeftHandIndex4	0	0	0	0	0	0	1
LeftHandMiddle1	0	0	0	0	0	0	1
LeftHandMiddle2	0	0	0	0	0	0	1
LeftHandMiddle3	0	0	0	0	0	0	1
LeftHandMiddle4	0	0	0	0	0	0	1
LeftHandRing1	0	0	0	0	0	0	1
LeftHandRing2	0	0	0	0	0	0	1
LeftHandRing3	0	0	0	0	0	0	1
LeftHandRing4	0	0	0	0	0	0	1
LeftHandPinky1	0	0	0	0	0	0	1
LeftHandPinky2	0	0	0	0	0	0	1
LeftHandPinky3	0	0	0	0	0	0	1
LeftHandPinky4	0	0	0	0	0	0	1
RightShoulder	0	0	0	0	0	0	1
RightArm	0	0	0	0	0	0	1
RightForeArm	0	0	0	0	0	0	1
RightHand	0	0	0	0	0	0	1
RightHandPinky1	0	0	0	0	0	0	1
RightHandPinky2	0	0	0	0	0	0	1
RightHandPinky3	0	0	0	0	0	0	1
RightHandPinky4	0	0	0	0	0	0	1
RightHandRing1	0	0	0	0	0	0	1
RightHandRing2	0	0	0	0	0	0	1
RightHandRing3	0	0	0	0	0	0	1
RightHandRing4	0	0	0	0	0	0	1
RightHandMiddle1	0	0	0	0	0	0	1
RightHandMiddle2	0	0	0	0	0	0	1
RightHandMiddle3	0	0	0	0	0	0	1
RightHandMiddle4	0	0	0	0	0	0	1
RightHandIndex1	0	0	0	0	0	0	1
RightHandIndex2	0	0	0	0	0	0	1
RightHandIndex3	0	0	0	0	0	0	1
RightHandIndex4	0	0	0	0	0	0	1
RightHandThumb1	0	0	0	0	0	0	1
RightHandThumb2	0	0	0	0	0	0	1
RightHandThumb3	0	0	0	0	0	0	1
RightHandThumb4	0	0	0	0	0	0	1
LeftUpLeg	0	0	0	0	0	0	1
LeftLeg	0	0	0	0	0	0	1
LeftFoot	0	0	0	0	0	0	1
LeftToeBase	0	0	0	0	0	0	1
RightUpLeg	0	0	0	0	0	0	1
RightLeg	0	0	0	0	0	0	1
RightFoot	0	0	0	0	0	0	1
RightToeBase	0	0	0	0	0	0	1
[Hips]
11	1510.865723	983.171875	-50.06624222	4.555549145	76.99834442	-3.365347385	1.0
12	1672.309082	1000.113403	-42.14636993	-3.289320707	73.49778748	-12.71769428	1.0
13	1835.354248	1008.398132	-36.74825287	-2.260632038	72.47609711	-12.96660137	1.0
[Spine]
11	0	101.8159943	1.315000057	7.483572483	-8.920307159	1.665143728	1.0
12	0	101.8159943	1.315000057	5.914723396	-12.59756279	4.170715809	1.0
13	0	101.8159943	1.315000057	4.878415108	-15.43421364	4.689813614	1.0
[Spine1]
11	0	100.8349991	-10.00800037	2.795014381	-3.547889471	0.8360624909	1.0
12	0	100.8349991	-10.00800037	2.304308176	-4.881826878	1.459320784	1.0
13	0	100.8349991	-10.00800037	1.927518249	-5.916499615	1.671901703	1.0
[Spine2]
11	0	91	-13.73399925	2.801678181	-3.536928892	0.8537855148	1.0
12	0	91	-13.73399925	2.292218447	-4.880914211	1.475750685	1.0
13	0	91	-13.73399925	1.907539845	-5.91649437	1.698614717	1.0
[Neck]
11	0	166.7169952	-25.16200066	-0.8231512904	-8.778290749	-0.3498811424	1.0
12	0	166.7169952	-25.16200066	-0.07049544901	-6.897875786	-0.5837253928	1.0
13	0	166.7169952	-25.16200066	-0.2389704883	-5.74532032	-0.4868127704	1.0
[Head]
11	0	96.17900085	16.84999847	-22.74640846	-40.57958221	20.89129639	1.0
12	0	96.17900085	16.84999847	-19.61979103	-34.20328903	16.38311005	1.0
13	0	96.17900085	16.84999847	-18.42321587	-30.08434486	15.15422153	1.0
[LeftEye]
11	30.6760006	64.09500122	92.83599854	0	0	0	1.0
12	30.6760006	64.09500122	92.83599854	0	0	0	1.0
13	30.6760006	64.09500122	92.83599854	0	0	0	1.0
[RightEye]
11	-30.6760006	64.09500122	92.83499908	0	0	0	1.0
12	-30.6760006	64.09500122	92.83499908	0	0	0	1.0
13	-30.6760006	64.09500122	92.83499908	0	0	0	1.0
[LeftShoulder]
11	45.70400238	109.4599991	-26.28000069	10.14801693	-27.64258957	-22.87407875	1.0
12	45.70400238	109.4599991	-26.28000069	9.930465698	-26.6710434	-22.86015892	1.0
13	45.70400238	109.4599991	-26.28000069	9.425868034	-24.90954208	-22.46565056	1.0
[LeftArm]
11	105.923996	-5.24600029	-22.32099915	16.04189491	-3.258757353	-27.62304497	1.0
12	105.923996	-5.24600029	-22.32099915	12.58416462	-2.910361767	-27.10294342	1.0
13	105.923996	-5.24600029	-22.32099915	10.67484283	-1.627369404	-27.52767372	1.0
[LeftForeArm]
11	278.414978	-0.0009999999311	0	-1.248905619e-06	-58.36174393	-0.0001943647949	1.0
12	278.414978	-0.0009999999311	0	1.735396836e-05	-77.13665771	-0.0002137749543	1.0
13	278.414978	-0.0009999999311	0	-3.051757813e-05	-93.80290222	-0.0001220703125	1.0
[LeftHand]
11	283.2879944	0	0	26.90639114	3.312436342	-4.25332737	1.0
12	283.2879944	0	0	27.25660133	1.23232007	-1.229858875	1.0
13	283.2879944	0	0	26.97413063	-4.395776749	7.371848583	1.0
[LeftHandThumb1]
11	24.6609993	-15.75	26.8239994	-1.792303562	-8.352180481	-8.248941422	1.0
12	24.6609993	-15.75	26.8239994	-1.771946669	-8.229352951	-8.157044411	1.0
13	24.6609993	-15.75	26.8239994	-0.8668776751	-6.298649788	-7.152498722	1.0
[LeftHandThumb2]
11	32.29800034	-18.64699936	18.64699936	2.866123915	26.53676987	13.3647747	1.0
12	32.29800034	-18.64699936	18.64699936	2.852451086	26.12014771	13.61136913	1.0
13	32.29800034	-18.64699936	18.64699936	2.803153515	24.09258652	12.92011356	1.0
[LeftHandThumb3]
11	26.52600098	-15.31499958	15.31499958	2.216893911	13.69159222	2.685628891	1.0
12	26.52600098	-15.31499958	15.31499958	2.123054743	14.36625957	4.365759373	1.0
13	26.52600098	-15.31499958	15.31499958	1.713054538	12.91655445	4.353008747	1.0
[LeftHandThumb4]
11	19.54599953	-11.28499985	11.28499985	0	0	0	1.0
12	19.54599953	-11.28499985	11.28499985	0	0	0	1.0
13	19.54599953	-11.28499985	11.28499985	0	0	0	1.0
[LeftHandIndex1]
11	91.09299469	-5.170999527	22.60099792	-2.216159105	-9.221923828	-24.02503967	1.0
12	91.09299469	-5.170999527	22.60099792	-2.165569067	-12.58981323	-22.78882027	1.0
13	91.09299469	-5.170999527	22.60099792	-2.03457284	-12.98986053	-21.77870941	1.0
[LeftHandIndex2]
11	36.76399994	0	0	-0.3530644476	2.185828447	-14.21556568	1.0
12	36.76399994	0	0	-0.3618001342	2.207326889	-14.44374752	1.0
13	36.76399994	0	0	-0.3244752884	2.113754272	-13.45323944	1.0
[LeftHandIndex3]
11	28.83100128	0	0	-0.1087804288	0.8001827598	-10.1164732	1.0
12	28.83100128	0	0	-0.1175023168	0.8479459882	-10.59932041	1.0
13	28.83100128	0	0	-0.105365552	0.7808510065	-9.921326637	1.0
[LeftHandIndex4]
11	23.92700005	0	0	0	0	0	1.0
12	23.92700005	0	0	0	0	0	1.0
13	23.92700005	0	0	0	0	0	1.0
[LeftHandMiddle1]
11	95.33399963	0	0	-5.239260197	-3.172377586	-44.96133423	1.0
12	95.33399963	0	0	-4.864323139	-6.638027668	-42.73700333	1.0
13	95.33399963	0	0	-4.11720562	-7.998902798	-37.71310043	1.0
[LeftHandMiddle2]
11	36.98199844	0	0	-1.015739202	3.324897766	-27.02607155	1.0
12	36.98199844	0	0	-1.009317756	3.3161695	-26.9190712	1.0
13	36.98199844	0	0	-0.9139502048	3.181876659	-25.29136658	1.0
[LeftHandMiddle3]
11	29.50900078	0	0	-0.1928959191	1.658115149	-14.05335712	1.0
12	29.50900078	0	0	-0.1917201132	1.653712749	-14.0075531	1.0
13	29.50900078	0	0	-0.1580086946	1.522885919	-12.64995098	1.0
[LeftHandMiddle4]
11	28.3390007	0	0	0	0	0	1.0
12	28.3390007	0	0	0	0	0	1.0
13	28.3390007	0	0	0	0	0	1.0
[LeftHandRing1]
11	91.04499817	-0.4390000105	-18.65100098	-5.539836884	6.683440685	-47.16490555	1.0
12	91.04499817	-0.4390000105	-18.65100098	-4.822903156	4.650804043	-42.83639526	1.0
13	91.04499817	-0.4390000105	-18.65100098	-3.992998123	3.468581676	-37.29575729	1.0
[LeftHandRing2]
11	31.54000092	0	0	-0.9500910044	3.714110613	-35.93824768	1.0
12	31.54000092	0	0	-0.9821984172	3.761568546	-36.51741791	1.0
13	31.54000092	0	0	-0.8285606503	3.524408102	-33.66138077	1.0
[LeftHandRing3]
11	29.37700081	0	0	-0.3637673855	2.733809948	-28.12893677	1.0
12	29.37700081	0	0	-0.3855878711	2.78574419	-28.69530678	1.0
13	29.37700081	0	0	-0.2819521725	2.52483654	-25.87205315	1.0
[LeftHandRing4]
11	26.47500038	0	0	0	0	0	1.0
12	26.47500038	0	0	0	0	0	1.0
13	26.47500038	0	0	0	0	0	1.0
[LeftHandPinky1]
11	80.77799988	-4.887000084	-38.06099701	-7.242121696	2.319104671	-59.28355408	1.0
12	80.77799988	-4.887000084	-38.06099701	-6.614144802	-1.637942433	-54.61510849	1.0
13	80.77799988	-4.887000084	-38.06099701	-6.874503136	-2.300556421	-46.69216156	1.0
[LeftHandPinky2]
11	36	0	0	-2.772699594	4.418613911	-55.93276215	1.0
12	36	0	0	-2.764238119	4.413543224	-55.83379364	1.0
13	36	0	0	-2.241072416	4.058782578	-49.48937225	1.0
[LeftHandPinky3]
11	21.14200211	0	0	-0.8689366579	3.425193787	-27.2758007	1.0
12	21.14200211	0	0	-0.8613473177	3.413114548	-27.13312531	1.0
13	21.14200211	0	0	-0.558760643	2.865881681	-20.88311386	1.0
[LeftHandPinky4]
11	19.75699997	0	0	0	0	0	1.0
12	19.75699997	0	0	0	0	0	1.0
13	19.75699997	0	0	0	0	0	1.0
[RightShoulder]
11	-45.70000076	109.4620056	-26.28000069	2.316800356	-8.575029373	12.77464771	1.0
12	-45.70000076	109.4620056	-26.28000069	2.501724005	-7.302320957	13.20521355	1.0
13	-45.70000076	109.4620056	-26.28000069	2.709744215	-6.242980957	13.38955021	1.0
[RightArm]
11	-105.9280014	-5.248000145	-22.32099915	31.49730873	-20.30921936	34.80441666	1.0
12	-105.9280014	-5.248000145	-22.32099915	32.34688568	-28.25836754	26.16383362	1.0
13	-105.9280014	-5.248000145	-22.32099915	29.54665947	-35.18990707	20.10303307	1.0
[RightForeArm]
11	-278.414978	0	0	5.954185326e-05	62.48406601	5.956281893e-05	1.0
12	-278.414978	0	0	-6.444276096e-06	58.2546196	-1.807590706e-05	1.0
13	-278.414978	0	0	-6.00130943e-06	57.57531738	3.560296364e-06	1.0
[RightHand]
11	-283.2879944	0	0.0009999999311	41.31482697	6.937743187	1.108778596	1.0
12	-283.2879944	0	0.0009999999311	41.55738831	-1.654874206	5.974291325	1.0
13	-283.2879944	0	0.0009999999311	41.08850098	-10.92909813	11.26521873	1.0
[RightHandPinky1]
11	-80.76699829	-4.885000229	-38.06000137	-3.298765659	-15.13536072	26.43907356	1.0
12	-80.76699829	-4.885000229	-38.06000137	-4.309597492	-16.32440567	32.15643311	1.0
13	-80.76699829	-4.885000229	-38.06000137	-5.410635471	-16.73662567	38.96142197	1.0
[RightHandPinky2]
11	-36	0	0.0009999999311	-1.1921134	-3.018258572	34.65790558	1.0
12	-36	0	0.0009999999311	-1.80253911	-3.687700987	43.74782181	1.0
13	-36	0	0.0009999999311	-2.388352871	-4.166846275	51.34381866	1.0
[RightHandPinky3]
11	-21.14200211	0	0	-0.2870150506	1.365551233	8.185750008	1.0
12	-21.14200211	0	0	-0.5566576719	0.5126938224	17.10651779	1.0
13	-21.14200211	0	0	-0.8803666234	-0.1592878997	24.54629898	1.0
[RightHandPinky4]
11	-19.75699997	0	0	0	0	0	1.0
12	-19.75699997	0	0	0	0	0	1.0
13	-19.75699997	0	0	0	0	0	1.0
[RightHandRing1]
11	-91.03599548	-0.4390000105	-18.65100098	-2.890743732	-10.29985332	26.40633774	1.0
12	-91.03599548	-0.4390000105	-18.65100098	-3.471208334	-10.51100159	30.74590492	1.0
13	-91.03599548	-0.4390000105	-18.65100098	-4.120333672	-10.61249733	35.51802063	1.0
[RightHandRing2]
11	-31.54000092	0	0	-0.4103906453	-2.696484327	24.28652763	1.0
12	-31.54000092	0	0	-0.6372483373	-3.186603308	29.74262619	1.0
13	-31.54000092	0	0	-0.8723573685	-3.594473362	34.50102615	1.0
[RightHandRing3]
11	-29.37700081	0	0	-0.086813353	0.3602004647	15.05369949	1.0
12	-29.37700081	0	0	-0.2004297525	-0.168514967	20.48575974	1.0
13	-29.37700081	0	0	-0.3398052752	-0.6184628606	25.2180748	1.0
[RightHandRing4]
11	-26.47500038	0	0	0	0	0	1.0
12	-26.47500038	0	0	0	0	0	1.0
13	-26.47500038	0	0	0	0	0	1.0
[RightHandMiddle1]
11	-95.32500458	0	0	-1.859880328	-4.317477226	19.11171913	1.0
12	-95.32500458	0	0	-2.375055075	-4.74055624	23.1612606	1.0
13	-95.32500458	0	0	-2.891544104	-5.153896809	27.09196091	1.0
[RightHandMiddle2]
11	-36.98199844	0	0	-0.8547461629	-3.094029665	24.24775124	1.0
12	-36.98199844	0	0	-1.033127546	-3.348190308	27.31702995	1.0
13	-36.98199844	0	0	-1.184824944	-3.54353857	29.76230621	1.0
[RightHandMiddle3]
11	-29.50900078	0	0	-0.2292810529	-1.59710598	15.04822254	1.0
12	-29.50900078	0	0	-0.3216557503	-1.886660099	18.10419464	1.0
13	-29.50900078	0	0	-0.4061700702	-2.113411427	20.53790092	1.0
[RightHandMiddle4]
11	-28.3390007	0	0.0009999999311	0	0	0	1.0
12	-28.3390007	0	0.0009999999311	0	0	0	1.0
13	-28.3390007	0	0.0009999999311	0	0	0	1.0
[RightHandIndex1]
11	-91.08300018	-5.167999744	22.60099792	-0.2182889134	-0.01916738786	4.530721188	1.0
12	-91.08300018	-5.167999744	22.60099792	-0.6486849785	-0.9762647748	9.197703362	1.0
13	-91.08300018	-5.167999744	22.60099792	-1.104996204	-2.160041094	13.85943127	1.0
[RightHandIndex2]
11	-36.76399994	0	0	-0.2435223609	-1.892449975	11.13864803	1.0
12	-36.76399994	0	0	-0.2981127501	-2.044541836	12.72700119	1.0
13	-36.76399994	0	0	-0.3424153328	-2.159167051	13.93520737	1.0
[RightHandIndex3]
11	-28.83100128	0	0	-0.1693771333	0.1617397964	10.59684467	1.0
12	-28.83100128	0	0	-0.2005808651	0.006710912101	12.16924477	1.0
13	-28.83100128	0	0	-0.227094382	-0.1102984324	13.36201191	1.0
[RightHandIndex4]
11	-23.92700005	0	0	0	0	0	1.0
12	-23.92700005	0	0	0	0	0	1.0
13	-23.92700005	0	0	0	0	0	1.0
[RightHandThumb1]
11	-24.64799881	-15.72700024	26.82600021	-5.540761471	-15.68501186	-7.670815468	1.0
12	-24.64799881	-15.72700024	26.82600021	-9.644834518	-24.0388279	-14.30325699	1.0
13	-24.64799881	-15.72700024	26.82600021	-12.45830822	-27.45574379	-17.3275013	1.0
[RightHandThumb2]
11	-32.29800034	-18.64699936	18.64699936	6.374968052	-9.057536125	-2.378253222	1.0
12	-32.29800034	-18.64699936	18.64699936	6.775625706	-9.291615486	4.088407993	1.0
13	-32.29800034	-18.64699936	18.64699936	6.658060074	-10.86685085	7.431880474	1.0
[RightHandThumb3]
11	-26.52600098	-15.31399918	15.31399918	0.7860586643	-3.610667706	-2.128441811	1.0
12	-26.52600098	-15.31399918	15.31399918	1.518886089	-6.808250427	-2.844713688	1.0
13	-26.52600098	-15.31399918	15.31399918	2.162238836	-9.518875122	-3.095992088	1.0
[RightHandThumb4]
11	-19.54599953	-11.28499985	11.28499985	0	0	0	1.0
12	-19.54599953	-11.28499985	11.28499985	0	0	0	1.0
13	-19.54599953	-11.28499985	11.28499985	0	0	0	1.0
[LeftUpLeg]
11	82.07800293	-67.51699829	-15.99599934	9.909542084	6.746405602	-6.148574829	1.0
12	82.07800293	-67.51699829	-15.99599934	15.69833088	10.66968536	-3.593227148	1.0
13	82.07800293	-67.51699829	-15.99599934	17.92513084	11.66784573	-4.796808243	1.0
[LeftLeg]
11	0	-443.7049866	2.845999956	7.733004093	1.665219426	1.512381911	1.0
12	0	-443.7049866	2.845999956	5.961035728	0.7968201637	1.52400291	1.0
13	0	-443.7049866	2.845999956	9.708957672	3.249250889	4.289296627	1.0
[LeftFoot]
11	0	-444.2789917	-29.8219986	-16.73587036	3.22168684	1.265537381	1.0
12	0	-444.2789917	-29.8219986	5.666438103	2.568608046	-2.684892893	1.0
13	0	-444.2789917	-29.8219986	27.47942162	5.173676968	-9.042266846	1.0
[LeftToeBase]
11	0	-87.28699493	107.1060028	-8.124094963	-6.244002725e-05	6.921015483e-06	1.0
12	0	-87.28699493	107.1060028	-16.0400753	0.5549468398	2.103280544	1.0
13	0	-87.28699493	107.1060028	-19.23274803	-1.868718982e-06	-3.611450211e-06	1.0
[RightUpLeg]
11	-82.07800293	-67.51699829	-15.99599934	-52.91115952	-0.1526219845	-3.148569822	1.0
12	-82.07800293	-67.51699829	-15.99599934	-55.16407394	5.403145313	2.788491488	1.0
13	-82.07800293	-67.51699829	-15.99599934	-51.01747894	7.578752041	5.914943218	1.0
[RightLeg]
11	0	-443.7049866	2.861999989	92.73560333	0.7109986544	-0.8040824533	1.0
12	0	-443.7049866	2.861999989	71.58437347	1.432523966	-0.09801591188	1.0
13	0	-443.7049866	2.861999989	46.84834671	2.280505896	-1.659134865	1.0
[RightFoot]
11	0	-444.2770081	-29.83799934	-5.576303005	-8.883149147	4.922751904	1.0
12	0	-444.2770081	-29.83799934	-10.29928493	-12.02397346	10.61889267	1.0
13	0	-444.2770081	-29.83799934	-12.07090282	-10.32656193	14.79991913	1.0
[RightToeBase]
11	0	-87.28699493	107.1060028	-2.891460896	2.227542609e-06	4.918178092e-06	1.0
12	0	-87.28699493	107.1060028	-2.2338202	-4.35810216e-05	4.133426046e-06	1.0
13	0	-87.28699493	107.1060028	-3.017246008	6.255605058e-06	6.083043445e-06	1.0
[EndOfFile]
